# xmcd
#
# Track frame offsets:
# 150
# 17544
# 34635
# 48258
# 62460
# 81662
# 97484
# 111644
# 127268
# 142924
# 162006
# 170019
# 192464
# 205166
#
# Disc length: 2946 seconds
#
# Revision: 1
# Processed by: cddbd v1.5.2PL0 Copyright (c) Steve Scherf et al.
# Submitted via: CedeCatalogueitor 2.6.0.6 http://personales.ya.com/cdcatalogueitor
#
DISCID=cc0b800e
DTITLE=The Pauls - Miss Tokyo
DYEAR=1900
DGENRE=
TTITLE0=The Way You Want It
TTITLE1=The Princess Of The Moon
TTITLE2=Can't Shine Tonight
TTITLE3=Miss Tokyo
TTITLE4=Magdalena
TTITLE5=Fighting In Vain
TTITLE6=Too Hot For Spring
TTITLE7=Wicket Man Blues
TTITLE8=Fingers Throuh Your Hari And Rock And Roll
TTITLE9=Some Kind Of Love
TTITLE10=My Girlfriend
TTITLE11=A Word To Say
TTITLE12=You Said I Said
TTITLE13=Put Your Arms Around Her Waist
EXTD=
EXTT0=
EXTT1=
EXTT2=
EXTT3=
EXTT4=
EXTT5=
EXTT6=
EXTT7=
EXTT8=
EXTT9=
EXTT10=
EXTT11=
EXTT12=
EXTT13=
PLAYORDER=
